<svg xmlns="http://www.w3.org/2000/svg" viewBox="0 0 600 400" width="600" height="400" role="img" aria-label="Ilustración de un panel de atribución de anuncios">
  <rect width="600" height="400" fill="#0f1218"/>
  <rect x="40" y="40" width="520" height="320" rx="14" fill="#171b22" stroke="#2a3140" stroke-width="2"/>
  <circle cx="70" cy="70" r="6" fill="#ff4d4f"/>
  <circle cx="92" cy="70" r="6" fill="#ffd24d"/>
  <circle cx="114" cy="70" r="6" fill="#4dff88"/>
  <line x1="40" y1="96" x2="560" y2="96" stroke="#2a3140" stroke-width="2"/>

  <g>
    <rect x="70" y="230" width="44" height="90" rx="4" fill="#3b82f6"/>
    <rect x="130" y="190" width="44" height="130" rx="4" fill="#3b82f6"/>
    <rect x="190" y="150" width="44" height="170" rx="4" fill="#60a5fa"/>
    <rect x="250" y="210" width="44" height="110" rx="4" fill="#3b82f6"/>
    <rect x="310" y="170" width="44" height="150" rx="4" fill="#60a5fa"/>
    <rect x="370" y="120" width="44" height="200" rx="4" fill="#93c5fd"/>
  </g>

  <polyline points="92,300 152,270 212,210 272,250 332,200 392,150" fill="none" stroke="#f97316" stroke-width="4" stroke-linecap="round" stroke-linejoin="round"/>
  <circle cx="392" cy="150" r="7" fill="#f97316"/>

  <g fill="#93c5fd" font-family="monospace">
    <rect x="440" y="120" width="90" height="26" rx="6" fill="#1f2937"/>
    <text x="450" y="138" font-size="13" fill="#93c5fd">CTR 13.2%</text>
    <rect x="440" y="156" width="90" height="26" rx="6" fill="#1f2937"/>
    <text x="450" y="174" font-size="13" fill="#4dff88">4 leads</text>
    <rect x="440" y="192" width="90" height="26" rx="6" fill="#1f2937"/>
    <text x="450" y="210" font-size="13" fill="#f97316">fbclid</text>
  </g>

  <text x="70" y="345" font-size="14" fill="#8a93a6" font-family="sans-serif">Panel de atribución · Meta Ads Insights · Next.js</text>
</svg>
